<svg id="Capa_1" enable-background="new 0 0 496.943 496.943" height="512" viewBox="0 0 496.943 496.943" width="512" xmlns="http://www.w3.org/2000/svg"><g><path d="m466.943.842-30 44.362 45-.26 15-15v-22.437c0-4.196-3.443-7.57-7.638-7.506-7.495.116-14.95.399-22.362.841z" fill="#a94525"/><path d="m7.506 496.943h22.437l15-15c0-236.328 187.598-428.832 422-436.74v-44.361c-258.002 15.362-463.011 227.536-466.942 488.462-.063 4.195 3.31 7.639 7.505 7.639z" fill="#ff3c19"/><path d="m466.943 30.891-30 44.327 45-.275 15-15v-30c-10.077 0-20.081.319-30 .948z" fill="#ff5f21"/><path d="m29.943 496.943h30l15-15c0-219.758 174.17-398.832 392-406.725v-44.327c-243.937 15.466-437 218.212-437 466.052z" fill="#ff8229"/><path d="m466.943 60.964-30 44.274 45-.295 15-15v-30c-10.084 0-20.086.349-30 1.021z" fill="#ffa630"/><path d="m59.943 496.943h30l15-15c0-203.188 160.742-368.829 362-376.705v-44.274c-227.354 15.416-407 204.714-407 435.979z" fill="#ffc938"/><path d="m466.943 91.038-30 44.23 45-.325 15-15v-30c-10.09 0-20.093.373-30 1.095z" fill="#5b9b40"/><path d="m89.943 496.943h30l15-15c0-186.617 147.317-338.819 332-346.675v-44.23c-210.771 15.357-377 191.215-377 405.905z" fill="#70ae3e"/><path d="m466.943 121.124-30 44.181 45-.363 15-15v-30c-10.098.001-20.102.403-30 1.182z" fill="#3193e0"/><path d="m119.943 496.943h30l15-15c0-170.045 133.892-308.805 302-316.637v-44.181c-194.185 15.288-347 177.704-347 375.818z" fill="#26abff"/><path d="m466.943 151.227-30 44.104 45-.388 15-15v-30c-10.107 0-20.112.437-30 1.284z" fill="#4663a2"/><path d="m149.943 496.943h30l15-15c0-153.474 120.467-278.809 272-286.612v-44.104c-177.596 15.209-317 164.18-317 345.716z" fill="#3b7bc1"/><path d="m496.943 179.943c-10.12 0-20.123.495-30 1.422l-20 15.067 20 15.067c7.475-.776 15.033-1.27 22.667-1.464 4.075-.103 7.333-3.415 7.333-7.491z" fill="#302c4c"/><path d="m179.943 496.943h22.603c4.073 0 7.387-3.253 7.489-7.324 3.634-145.049 114.886-263.366 256.908-278.119v-30.134c-161.001 15.116-287 150.622-287 315.577z" fill="#5b3364"/></g></svg>